# xmcd
#
# Track frame offsets:
#  150
#  10587
#  24430
#  40172
#  52785
#  69567
#  80755
#  94512
#  110907
#  123552
#
# Disc length: 1841 seconds
#
# Revision: 6
# Processed by: cddbd v1.5.1PL2 Copyright (c) Steve Scherf et al.
# Submitted via: Collectorz.com_Music_Collector 6.10
#
DISCID=78072f0a
DTITLE=Black, Clint - Killin' Time
DYEAR=1989
DGENRE=Country
TTITLE0=Straight From The Factory
TTITLE1=A Better Man
TTITLE2=Nobody's Home
TTITLE3=Walkin' Away
TTITLE4=You're Gonna Leave Me Again
TTITLE5=I'll Be Gone
TTITLE6=Nothing's News
TTITLE7=Winding Down
TTITLE8=Killin' Time
TTITLE9=Live and Learn
EXTD=
EXTT0=
EXTT1=
EXTT2=
EXTT3=
EXTT4=
EXTT5=
EXTT6=
EXTT7=
EXTT8=
EXTT9=
PLAYORDER=
